<?xml version="1.0" standalone="yes"?>
<!-- SVG graphic -->
<svg xmlns='http://www.w3.org/2000/svg' xmlns:xlink='http://www.w3.org/1999/xlink'
 version="1.1">
<rect x="0" y="0" width="6" height="200" stroke="black" stroke-width="1" fill="blue" tooltip="enable"><title>(0,3927)</title></rect><rect x="6" y="120.143" width="6" height="79.8574" stroke="black" stroke-width="1" fill="blue" tooltip="enable"><title>(0.0389086,1568)</title></rect><rect x="12" y="136.185" width="6" height="63.8146" stroke="black" stroke-width="1" fill="blue" tooltip="enable"><title>(0.0778171,1253)</title></rect><rect x="18" y="151.413" width="6" height="48.5867" stroke="black" stroke-width="1" fill="blue" tooltip="enable"><title>(0.116726,954)</title></rect><rect x="24" y="154.062" width="6" height="45.9384" stroke="black" stroke-width="1" fill="blue" tooltip="enable"><title>(0.155634,902)</title></rect><rect x="30" y="161.446" width="6" height="38.5536" stroke="black" stroke-width="1" fill="blue" tooltip="enable"><title>(0.194543,757)</title></rect><rect x="36" y="165.113" width="6" height="34.8867" stroke="black" stroke-width="1" fill="blue" tooltip="enable"><title>(0.233451,685)</title></rect><rect x="42" y="169.799" width="6" height="30.2012" stroke="black" stroke-width="1" fill="blue" tooltip="enable"><title>(0.27236,593)</title></rect><rect x="48" y="170.868" width="6" height="29.1317" stroke="black" stroke-width="1" fill="blue" tooltip="enable"><title>(0.311269,572)</title></rect><rect x="54" y="178.559" width="6" height="21.4413" stroke="black" stroke-width="1" fill="blue" tooltip="enable"><title>(0.350177,421)</title></rect><rect x="60" y="177.184" width="6" height="22.8164" stroke="black" stroke-width="1" fill="blue" tooltip="enable"><title>(0.389086,448)</title></rect><rect x="66" y="178.966" width="6" height="21.0339" stroke="black" stroke-width="1" fill="blue" tooltip="enable"><title>(0.427994,413)</title></rect><rect x="72" y="180.188" width="6" height="19.8116" stroke="black" stroke-width="1" fill="blue" tooltip="enable"><title>(0.466903,389)</title></rect><rect x="78" y="183.397" width="6" height="16.603" stroke="black" stroke-width="1" fill="blue" tooltip="enable"><title>(0.505811,326)</title></rect><rect x="84" y="187.573" width="6" height="12.4268" stroke="black" stroke-width="1" fill="blue" tooltip="enable"><title>(0.54472,244)</title></rect><rect x="90" y="187.115" width="6" height="12.8852" stroke="black" stroke-width="1" fill="blue" tooltip="enable"><title>(0.583629,253)</title></rect><rect x="96" y="189.305" width="6" height="10.6952" stroke="black" stroke-width="1" fill="blue" tooltip="enable"><title>(0.622537,210)</title></rect><rect x="102" y="188.694" width="6" height="11.3063" stroke="black" stroke-width="1" fill="blue" tooltip="enable"><title>(0.661446,222)</title></rect><rect x="108" y="191.138" width="6" height="8.86173" stroke="black" stroke-width="1" fill="blue" tooltip="enable"><title>(0.700354,174)</title></rect><rect x="114" y="191.8" width="6" height="8.19964" stroke="black" stroke-width="1" fill="blue" tooltip="enable"><title>(0.739263,161)</title></rect><rect x="120" y="192.208" width="6" height="7.79221" stroke="black" stroke-width="1" fill="blue" tooltip="enable"><title>(0.778171,153)</title></rect><rect x="126" y="194.754" width="6" height="5.24573" stroke="black" stroke-width="1" fill="blue" tooltip="enable"><title>(0.81708,103)</title></rect><rect x="132" y="194.347" width="6" height="5.65317" stroke="black" stroke-width="1" fill="blue" tooltip="enable"><title>(0.855989,111)</title></rect><rect x="138" y="193.99" width="6" height="6.00968" stroke="black" stroke-width="1" fill="blue" tooltip="enable"><title>(0.894897,118)</title></rect><rect x="144" y="195.824" width="6" height="4.17622" stroke="black" stroke-width="1" fill="blue" tooltip="enable"><title>(0.933806,82)</title></rect><rect x="150" y="195.06" width="6" height="4.94016" stroke="black" stroke-width="1" fill="blue" tooltip="enable"><title>(0.972714,97)</title></rect><rect x="156" y="195.62" width="6" height="4.37993" stroke="black" stroke-width="1" fill="blue" tooltip="enable"><title>(1.01162,86)</title></rect><rect x="162" y="195.518" width="6" height="4.48179" stroke="black" stroke-width="1" fill="blue" tooltip="enable"><title>(1.05053,88)</title></rect><rect x="168" y="196.027" width="6" height="3.9725" stroke="black" stroke-width="1" fill="blue" tooltip="enable"><title>(1.08944,78)</title></rect><rect x="174" y="196.69" width="6" height="3.31042" stroke="black" stroke-width="1" fill="blue" tooltip="enable"><title>(1.12835,65)</title></rect><rect x="180" y="197.403" width="6" height="2.5974" stroke="black" stroke-width="1" fill="blue" tooltip="enable"><title>(1.16726,51)</title></rect><rect x="186" y="197.759" width="6" height="2.2409" stroke="black" stroke-width="1" fill="blue" tooltip="enable"><title>(1.20617,44)</title></rect><rect x="192" y="197.708" width="6" height="2.29183" stroke="black" stroke-width="1" fill="blue" tooltip="enable"><title>(1.24507,45)</title></rect><rect x="198" y="197.759" width="6" height="2.2409" stroke="black" stroke-width="1" fill="blue" tooltip="enable"><title>(1.28398,44)</title></rect><rect x="204" y="197.555" width="6" height="2.44461" stroke="black" stroke-width="1" fill="blue" tooltip="enable"><title>(1.32289,48)</title></rect><rect x="210" y="198.319" width="6" height="1.68067" stroke="black" stroke-width="1" fill="blue" tooltip="enable"><title>(1.3618,33)</title></rect><rect x="216" y="198.523" width="6" height="1.47695" stroke="black" stroke-width="1" fill="blue" tooltip="enable"><title>(1.40071,29)</title></rect><rect x="222" y="198.319" width="6" height="1.68067" stroke="black" stroke-width="1" fill="blue" tooltip="enable"><title>(1.43962,33)</title></rect><rect x="228" y="197.963" width="6" height="2.03718" stroke="black" stroke-width="1" fill="blue" tooltip="enable"><title>(1.47853,40)</title></rect><rect x="234" y="198.37" width="6" height="1.62974" stroke="black" stroke-width="1" fill="blue" tooltip="enable"><title>(1.51743,32)</title></rect><rect x="240" y="198.574" width="6" height="1.42603" stroke="black" stroke-width="1" fill="blue" tooltip="enable"><title>(1.55634,28)</title></rect><rect x="246" y="198.778" width="6" height="1.22231" stroke="black" stroke-width="1" fill="blue" tooltip="enable"><title>(1.59525,24)</title></rect><rect x="252" y="198.574" width="6" height="1.42603" stroke="black" stroke-width="1" fill="blue" tooltip="enable"><title>(1.63416,28)</title></rect><rect x="258" y="198.981" width="6" height="1.01859" stroke="black" stroke-width="1" fill="blue" tooltip="enable"><title>(1.67307,20)</title></rect><rect x="264" y="198.88" width="6" height="1.12045" stroke="black" stroke-width="1" fill="blue" tooltip="enable"><title>(1.71198,22)</title></rect><rect x="270" y="198.981" width="6" height="1.01859" stroke="black" stroke-width="1" fill="blue" tooltip="enable"><title>(1.75089,20)</title></rect><rect x="276" y="198.574" width="6" height="1.42603" stroke="black" stroke-width="1" fill="blue" tooltip="enable"><title>(1.78979,28)</title></rect><rect x="282" y="198.88" width="6" height="1.12045" stroke="black" stroke-width="1" fill="blue" tooltip="enable"><title>(1.8287,22)</title></rect><rect x="288" y="199.389" width="6" height="0.611154" stroke="black" stroke-width="1" fill="blue" tooltip="enable"><title>(1.86761,12)</title></rect><rect x="294" y="199.491" width="6" height="0.509295" stroke="black" stroke-width="1" fill="blue" tooltip="enable"><title>(1.90652,10)</title></rect><rect x="300" y="199.44" width="6" height="0.560224" stroke="black" stroke-width="1" fill="blue" tooltip="enable"><title>(1.94543,11)</title></rect><rect x="306" y="199.389" width="6" height="0.611154" stroke="black" stroke-width="1" fill="blue" tooltip="enable"><title>(1.98434,12)</title></rect><rect x="312" y="199.338" width="6" height="0.662083" stroke="black" stroke-width="1" fill="blue" tooltip="enable"><title>(2.02325,13)</title></rect><rect x="318" y="199.694" width="6" height="0.305577" stroke="black" stroke-width="1" fill="blue" tooltip="enable"><title>(2.06215,6)</title></rect><rect x="324" y="199.236" width="6" height="0.763942" stroke="black" stroke-width="1" fill="blue" tooltip="enable"><title>(2.10106,15)</title></rect><rect x="330" y="199.542" width="6" height="0.458365" stroke="black" stroke-width="1" fill="blue" tooltip="enable"><title>(2.13997,9)</title></rect><rect x="336" y="199.593" width="6" height="0.407436" stroke="black" stroke-width="1" fill="blue" tooltip="enable"><title>(2.17888,8)</title></rect><rect x="342" y="199.44" width="6" height="0.560224" stroke="black" stroke-width="1" fill="blue" tooltip="enable"><title>(2.21779,11)</title></rect><rect x="348" y="199.745" width="6" height="0.254647" stroke="black" stroke-width="1" fill="blue" tooltip="enable"><title>(2.2567,5)</title></rect><rect x="354" y="199.185" width="6" height="0.814871" stroke="black" stroke-width="1" fill="blue" tooltip="enable"><title>(2.29561,16)</title></rect><rect x="360" y="199.643" width="6" height="0.356506" stroke="black" stroke-width="1" fill="blue" tooltip="enable"><title>(2.33451,7)</title></rect><rect x="366" y="199.44" width="6" height="0.560224" stroke="black" stroke-width="1" fill="blue" tooltip="enable"><title>(2.37342,11)</title></rect><rect x="372" y="199.542" width="6" height="0.458365" stroke="black" stroke-width="1" fill="blue" tooltip="enable"><title>(2.41233,9)</title></rect><rect x="378" y="199.338" width="6" height="0.662083" stroke="black" stroke-width="1" fill="blue" tooltip="enable"><title>(2.45124,13)</title></rect><rect x="384" y="199.643" width="6" height="0.356506" stroke="black" stroke-width="1" fill="blue" tooltip="enable"><title>(2.49015,7)</title></rect><rect x="390" y="199.796" width="6" height="0.203718" stroke="black" stroke-width="1" fill="blue" tooltip="enable"><title>(2.52906,4)</title></rect><rect x="396" y="199.694" width="6" height="0.305577" stroke="black" stroke-width="1" fill="blue" tooltip="enable"><title>(2.56797,6)</title></rect><rect x="402" y="199.898" width="6" height="0.101859" stroke="black" stroke-width="1" fill="blue" tooltip="enable"><title>(2.60687,2)</title></rect><rect x="408" y="199.949" width="6" height="0.0509295" stroke="black" stroke-width="1" fill="blue" tooltip="enable"><title>(2.64578,1)</title></rect><rect x="414" y="199.593" width="6" height="0.407436" stroke="black" stroke-width="1" fill="blue" tooltip="enable"><title>(2.68469,8)</title></rect><rect x="420" y="199.542" width="6" height="0.458365" stroke="black" stroke-width="1" fill="blue" tooltip="enable"><title>(2.7236,9)</title></rect><rect x="426" y="199.694" width="6" height="0.305577" stroke="black" stroke-width="1" fill="blue" tooltip="enable"><title>(2.76251,6)</title></rect><rect x="432" y="199.847" width="6" height="0.152788" stroke="black" stroke-width="1" fill="blue" tooltip="enable"><title>(2.80142,3)</title></rect><rect x="438" y="199.694" width="6" height="0.305577" stroke="black" stroke-width="1" fill="blue" tooltip="enable"><title>(2.84033,6)</title></rect><rect x="444" y="199.847" width="6" height="0.152788" stroke="black" stroke-width="1" fill="blue" tooltip="enable"><title>(2.87923,3)</title></rect><rect x="450" y="199.593" width="6" height="0.407436" stroke="black" stroke-width="1" fill="blue" tooltip="enable"><title>(2.91814,8)</title></rect><rect x="456" y="199.898" width="6" height="0.101859" stroke="black" stroke-width="1" fill="blue" tooltip="enable"><title>(2.95705,2)</title></rect><rect x="462" y="199.643" width="6" height="0.356506" stroke="black" stroke-width="1" fill="blue" tooltip="enable"><title>(2.99596,7)</title></rect><rect x="468" y="199.847" width="6" height="0.152788" stroke="black" stroke-width="1" fill="blue" tooltip="enable"><title>(3.03487,3)</title></rect><rect x="474" y="199.898" width="6" height="0.101859" stroke="black" stroke-width="1" fill="blue" tooltip="enable"><title>(3.07378,2)</title></rect><rect x="480" y="199.745" width="6" height="0.254647" stroke="black" stroke-width="1" fill="blue" tooltip="enable"><title>(3.11269,5)</title></rect><rect x="486" y="199.898" width="6" height="0.101859" stroke="black" stroke-width="1" fill="blue" tooltip="enable"><title>(3.15159,2)</title></rect><rect x="492" y="199.949" width="6" height="0.0509295" stroke="black" stroke-width="1" fill="blue" tooltip="enable"><title>(3.1905,1)</title></rect><rect x="498" y="200" width="6" height="0" stroke="black" stroke-width="1" fill="blue" tooltip="enable"><title>(3.22941,0)</title></rect><rect x="504" y="199.898" width="6" height="0.101859" stroke="black" stroke-width="1" fill="blue" tooltip="enable"><title>(3.26832,2)</title></rect><rect x="510" y="199.796" width="6" height="0.203718" stroke="black" stroke-width="1" fill="blue" tooltip="enable"><title>(3.30723,4)</title></rect><rect x="516" y="199.949" width="6" height="0.0509295" stroke="black" stroke-width="1" fill="blue" tooltip="enable"><title>(3.34614,1)</title></rect><rect x="522" y="200" width="6" height="0" stroke="black" stroke-width="1" fill="blue" tooltip="enable"><title>(3.38505,0)</title></rect><rect x="528" y="199.949" width="6" height="0.0509295" stroke="black" stroke-width="1" fill="blue" tooltip="enable"><title>(3.42395,1)</title></rect><rect x="534" y="199.898" width="6" height="0.101859" stroke="black" stroke-width="1" fill="blue" tooltip="enable"><title>(3.46286,2)</title></rect><rect x="540" y="199.898" width="6" height="0.101859" stroke="black" stroke-width="1" fill="blue" tooltip="enable"><title>(3.50177,2)</title></rect><rect x="546" y="200" width="6" height="0" stroke="black" stroke-width="1" fill="blue" tooltip="enable"><title>(3.54068,0)</title></rect><rect x="552" y="199.949" width="6" height="0.0509295" stroke="black" stroke-width="1" fill="blue" tooltip="enable"><title>(3.57959,1)</title></rect><rect x="558" y="199.847" width="6" height="0.152788" stroke="black" stroke-width="1" fill="blue" tooltip="enable"><title>(3.6185,3)</title></rect><rect x="564" y="200" width="6" height="0" stroke="black" stroke-width="1" fill="blue" tooltip="enable"><title>(3.65741,0)</title></rect><rect x="570" y="199.949" width="6" height="0.0509295" stroke="black" stroke-width="1" fill="blue" tooltip="enable"><title>(3.69631,1)</title></rect><rect x="576" y="200" width="6" height="0" stroke="black" stroke-width="1" fill="blue" tooltip="enable"><title>(3.73522,0)</title></rect><rect x="582" y="199.949" width="6" height="0.0509295" stroke="black" stroke-width="1" fill="blue" tooltip="enable"><title>(3.77413,1)</title></rect><rect x="588" y="199.949" width="6" height="0.0509295" stroke="black" stroke-width="1" fill="blue" tooltip="enable"><title>(3.81304,1)</title></rect><rect x="594" y="199.898" width="6" height="0.101859" stroke="black" stroke-width="1" fill="blue" tooltip="enable"><title>(3.85195,2)</title></rect><text x="30" y="240" font-size="20" fill="black">0</text>
<text x="600" y="240" font-size="20" fill="black">3.89086</text>
<polyline points="0,220,600,220" stroke="black" stroke-width="1" fill="none"/>
<text x="720" y="20" font-size="20" fill="black">3927</text>
<text x="720" y="200" font-size="20" fill="black">0</text>
<polyline points="660,0,660,200" stroke="black" stroke-width="1" fill="none"/>
</svg>